<?xml version="1.0" encoding="UTF-8"?> <svg xmlns="http://www.w3.org/2000/svg" fill="none" viewBox="0 0 1180 500" width="180" height="66"><path fill="#007179" d="M417 268.06a463.35 463.35 0 0 1-109.4 117.58c-67.3 49.28-135.53 85.25-205.55 69.67-21.37-4.87-55.83-27.57-51.83-80.33a229.76 229.76 0 0 1 39.96-107.03S44.25 336.46 74.83 377.7c32.03 43.32 122.27-3.7 137.38-14.01 0 0 62.67-40.55 96.2-95.63h108.6ZM0 233.25a467.87 467.87 0 0 1 109.52-118.03c67.19-49.17 135.47-85.2 205.43-69.5 21.37 4.75 55.84 27.45 52.13 80.22a229.17 229.17 0 0 1-39.96 107.43s45.92-68.17 15.34-109.7c-31.97-43.37-122.26 3.77-137.38 13.96 0 0-62.6 40.55-96.2 95.68L0 233.25Z"></path><path fill="#000" d="M478.2 383.67v-49.58H509v6.77h-23.5v14.5h20.03v6.68H485.5v14.91H509v6.72h-30.8Zm16.46-54.42h-5.21l5.07-11.3h7.65l-7.51 11.3ZM536.27 384.13a17.25 17.25 0 0 1-12.66-5.29c-4.74-4.89-4.67-10.4-4.67-19.93 0-9.54-.07-15 4.67-19.93a17.23 17.23 0 0 1 12.66-5.3c8.87 0 15.5 5.36 17.2 15.26h-7.49c-1.14-5.01-4.4-8.5-9.74-8.5a9.5 9.5 0 0 0-7.1 3c-2.37 2.65-2.91 5.5-2.91 15.47s.54 12.82 2.9 15.46a9.47 9.47 0 0 0 7.11 3c5.34 0 8.66-3.48 9.82-8.5h7.37c-1.58 9.9-8.4 15.26-17.16 15.26ZM593.2 378.84a17.94 17.94 0 0 1-25.43 0c-4.75-4.89-4.67-10.4-4.67-19.93 0-9.54-.08-15 4.67-19.93a17.95 17.95 0 0 1 25.43 0c4.73 4.88 4.6 10.38 4.6 19.93 0 9.55.13 15.04-4.6 19.93Zm-5.55-35.33a9.94 9.94 0 0 0-11.07-2.27 9.93 9.93 0 0 0-3.28 2.27c-2.38 2.64-2.84 5.43-2.84 15.4s.46 12.75 2.84 15.4a9.96 9.96 0 0 0 14.35 0c2.37-2.65 2.85-5.44 2.85-15.4s-.48-12.73-2.85-15.4ZM610.32 383.67v-49.58h7.32v42.86h23.16v6.72h-30.48ZM650.87 383.67v-49.58h30.8v6.77h-23.48v14.5h20.02v6.69h-20.02v14.9h23.48v6.72h-30.8ZM740.7 379.05a16.92 16.92 0 0 1-12.45 4.66h-16.93V334.1h16.93a16.92 16.92 0 0 1 12.45 4.68c5.2 5.37 4.87 12.61 4.87 19.8 0 7.18.33 15.11-4.88 20.48Zm-5.02-34.85a10.28 10.28 0 0 0-8.18-3.34h-8.89v36.09h8.87a10.2 10.2 0 0 0 8.19-3.34c2.51-2.85 2.57-8.22 2.57-15 0-6.78-.04-11.55-2.56-14.41ZM757.08 347.75V334.1h7.59v7.34l-7.59 6.32ZM777.92 383.67v-49.58h7.32v49.58h-7.32ZM829.1 383.67l-22.2-34.87v34.87h-7.32v-49.58h6.7l22.26 34.85V334.1h7.32v49.58h-6.76ZM878.91 378.48a18.1 18.1 0 0 1-25.92.36c-4.74-4.89-4.66-10.4-4.66-19.93 0-9.54-.08-15 4.66-19.93a17 17 0 0 1 12.66-5.3c10.22 0 16.18 6.9 17.52 15.4h-7.37c-1.21-5.44-4.73-8.64-10.15-8.64a9.51 9.51 0 0 0-7.1 3.07c-2.37 2.64-2.92 5.43-2.92 15.4s.55 12.82 2.92 15.46a9.48 9.48 0 0 0 7.1 3 10.14 10.14 0 0 0 7.86-3.48c1.74-2.22 2.6-5 2.42-7.81v-2.78h-10.28v-6.41h17.56v7.6c0 6.4-1.11 10.51-4.3 13.99ZM895.7 383.67v-49.58h30.8v6.77h-23.49v14.5h20.04v6.68h-20.03v14.91h23.49v6.72H895.7Zm16.46-54.42h-5.23l5.1-11.3h7.64l-7.51 11.3ZM967.8 383.67l-22.27-34.91v34.9h-7.3V334.1h6.68l22.28 34.85V334.1h7.29v49.58h-6.69ZM988.78 383.67v-49.58h7.3v49.58h-7.3ZM1010.39 383.67v-49.58h30.8v6.77h-23.5v14.5h20.04v6.69h-20.05v14.9h23.49v6.72h-30.78ZM1069.41 384.13c-9.82 0-17.27-6.9-17.27-17.14v-32.9h7.32v32.56c0 6.61 3.92 10.72 9.95 10.72 6.03 0 10.01-4.1 10.01-10.72v-32.56h7.28V367c0 10.25-7.48 17.14-17.29 17.14ZM1126.86 383.67l-10.14-20.9h-9.07v20.9h-7.3v-49.58h18.67c9.15 0 14.97 6.08 14.97 14.5a13.02 13.02 0 0 1-9.63 13.17l11.03 21.9h-8.53Zm-8.45-42.86h-10.76v15.54h10.83c4.88 0 8.19-2.85 8.19-7.73 0-4.87-3.38-7.76-8.26-7.76v-.05ZM1159.09 384.13c-7.24 0-12.46-1.74-17.05-6.55l4.86-4.95c3.53 3.63 7.38 4.74 12.33 4.74 6.28 0 9.95-2.79 9.95-7.6a6.73 6.73 0 0 0-1.9-5.15c-1.21-1.18-2.44-1.68-5.28-2.1l-5.69-.82a16.28 16.28 0 0 1-9.14-3.97 12.48 12.48 0 0 1-3.52-9.48c0-8.64 6.09-14.56 16.12-14.56 6.36 0 10.83 1.66 14.96 5.64l-4.67 4.74a13.9 13.9 0 0 0-10.47-3.84c-5.69 0-8.8 3.34-8.8 7.73a5.94 5.94 0 0 0 1.83 4.6 10.64 10.64 0 0 0 5.41 2.3l5.49.84c4.49.7 6.98 1.82 8.98 3.69a13.12 13.12 0 0 1 3.98 10.18c0 9.12-7.3 14.56-17.39 14.56Z"></path><path fill="#007179" d="M478.35 451.54v-49.6h31.63v6.74h-24.12v14.5h20.57v6.69h-20.57v14.9h24.12v6.77h-31.63ZM549.14 451.54l-22.87-34.88v34.9h-7.48v-49.63h6.8l22.86 34.84v-34.84h7.48v49.6h-6.8ZM597.07 446.32a18.97 18.97 0 0 1-26.6.33c-4.86-4.89-4.78-10.4-4.78-19.93 0-9.54 0-15 4.78-19.93a17.72 17.72 0 0 1 13-5.3c10.48 0 16.63 6.9 17.96 15.4h-7.58c-1.24-5.44-4.87-8.63-10.48-8.63a9.93 9.93 0 0 0-7.3 3c-2.42 2.64-3 5.43-3 15.4s.56 12.82 3 15.46a9.9 9.9 0 0 0 7.3 3 10.44 10.44 0 0 0 8.07-3.48 11.23 11.23 0 0 0 2.51-7.8v-2.79h-10.58v-6.41h18.08v7.6c.06 6.48-1.05 10.59-4.38 14.08ZM611.05 451.54v-49.6h7.49v49.6h-7.49ZM660.36 451.54l-22.87-34.88v34.9h-7.48v-49.63h6.89l22.86 34.84v-34.84h7.48v49.6h-6.88ZM678.67 451.54v-49.6h31.63v6.74h-24.13v14.5h20.59v6.69h-20.6v14.9h24.14v6.77h-31.63ZM719.08 451.54v-49.6h31.64v6.74H726.6v14.5h20.58v6.69H726.6v14.9h24.13v6.77h-31.64ZM786.81 451.54l-10.47-20.9h-9.38v20.9h-7.49v-49.6h19.2c9.38 0 15.37 6 15.37 14.48a13.04 13.04 0 0 1-9.88 13.16l11.4 21.96h-8.75Zm-8.68-42.86H767v15.55h11.13c5 0 8.41-2.86 8.41-7.74 0-4.87-3.4-7.8-8.4-7.8ZM803.53 451.54v-49.6H811v49.6h-7.48ZM852.83 451.54l-22.88-34.88v34.9h-7.48v-49.63h6.87l22.88 34.84v-34.84h7.48v49.6h-6.87ZM900.76 446.32a18.97 18.97 0 0 1-26.64.35c-4.86-4.9-4.8-10.4-4.8-19.93 0-9.54 0-15 4.8-19.93a17.69 17.69 0 0 1 13-5.3c10.48 0 16.63 6.9 17.96 15.4h-7.59c-1.25-5.44-4.86-8.63-10.47-8.63a9.87 9.87 0 0 0-7.3 3c-2.44 2.64-3 5.42-3 15.4 0 9.97.56 12.82 3 15.46a9.86 9.86 0 0 0 7.3 3 10.46 10.46 0 0 0 8.07-3.48 11.22 11.22 0 0 0 2.5-7.8v-2.79h-10.57v-6.42h18.18v7.6c0 6.47-1.18 10.58-4.44 14.07ZM943.06 451.96c-7.48 0-12.8-1.74-17.52-6.55l5-4.95c3.63 3.63 7.58 4.74 12.67 4.74 6.46 0 10.22-2.8 10.22-7.6a6.7 6.7 0 0 0-1.95-5.15c-1.26-1.19-2.51-1.68-5.43-2.1l-5.84-.82a16.93 16.93 0 0 1-9.4-3.98 12.4 12.4 0 0 1-3.6-9.48c0-8.63 6.25-14.56 16.55-14.56 6.54 0 11.12 1.67 15.37 5.64l-4.8 4.74a14.52 14.52 0 0 0-10.78-3.82c-5.83 0-8.98 3.34-8.98 7.72a5.93 5.93 0 0 0 1.87 4.6 11.12 11.12 0 0 0 5.57 2.3l5.63.84c4.59.7 7.16 1.81 9.24 3.69a12.96 12.96 0 0 1 4.04 10.18c-.07 9.13-7.5 14.56-17.86 14.56ZM985.4 451.96a17.91 17.91 0 0 1-13-5.3c-4.86-4.88-4.79-10.39-4.79-19.92 0-9.54 0-15 4.79-19.93a17.96 17.96 0 0 1 13-5.3c9.12 0 15.92 5.36 17.67 15.25h-7.64c-1.2-5-4.5-8.48-10.03-8.48a9.92 9.92 0 0 0-7.3 3c-2.42 2.65-3 5.5-3 15.47s.56 12.82 3 15.46a9.89 9.89 0 0 0 7.3 3c5.5 0 8.98-3.48 10.09-8.5h7.58c-1.66 9.94-8.69 15.25-17.67 15.25ZM1039.16 451.54v-21.67h-20.08v21.67h-7.48v-49.6h7.48v21.17h20.08v-21.18h7.49v49.6h-7.49ZM1087.17 446.65a18.73 18.73 0 0 1-26.08 0c-4.87-4.89-4.79-10.4-4.79-19.93 0-9.54 0-15 4.79-19.93a18.7 18.7 0 0 1 26.08 0c4.86 4.88 4.73 10.38 4.73 19.93 0 9.55.13 15.06-4.73 19.93Zm-5.7-35.33a10.48 10.48 0 0 0-14.74 0c-2.44 2.64-2.92 5.43-2.92 15.4s.48 12.75 2.92 15.4a10.46 10.46 0 0 0 14.74 0c2.43-2.65 2.99-5.44 2.99-15.4s-.56-12.75-2.99-15.38v-.02ZM1130.57 446.65a18.7 18.7 0 0 1-26.08 0c-4.86-4.89-4.78-10.4-4.78-19.93 0-9.54-.08-15 4.78-19.93a18.73 18.73 0 0 1 26.08 0c4.87 4.88 4.73 10.38 4.73 19.93 0 9.55.14 15.06-4.73 19.93Zm-5.7-35.33a10.46 10.46 0 0 0-14.74 0c-2.43 2.64-2.99 5.43-2.99 15.4s.5 12.75 2.99 15.4a10.48 10.48 0 0 0 14.74 0c2.43-2.65 3-5.44 3-15.4s-.57-12.75-3-15.38v-.02ZM1144.91 451.54v-49.6h7.48v42.84h23.85v6.76h-31.33ZM669.23 88.25H505.27l14.54 16.5v38.45H648.9v39.99H519.8v59.38h156.53v40.31h-198.3v-235h191.2v40.37ZM950.73 225.37a92.01 92.01 0 0 1-19.01 27.36 109.98 109.98 0 0 1-26.94 19.49 134.1 134.1 0 0 1-32.92 11.71 170.66 170.66 0 0 1-36.8 3.9 149.83 149.83 0 0 1-53.86-9.22A123.55 123.55 0 0 1 739.72 253a113.41 113.41 0 0 1-26.65-38.6 122.48 122.48 0 0 1-9.35-48.13c0-18.99 3.53-36.02 10.6-51.09a113.6 113.6 0 0 1 28.7-38.28 127.11 127.11 0 0 1 41.9-23.9 151.6 151.6 0 0 1 50.13-8.24c26.6 0 49.9 6.05 69.85 18.13a127.2 127.2 0 0 1 46.78 49.36l-37.41 16.87a126.8 126.8 0 0 0-14.35-18.13 78.85 78.85 0 0 0-38.5-22.33 107.27 107.27 0 0 0-26.35-3 105.28 105.28 0 0 0-34.16 5.5 82.77 82.77 0 0 0-28.06 15.94 76.2 76.2 0 0 0-19.03 25.5 79.63 79.63 0 0 0-7.02 34.06 75.84 75.84 0 0 0 26.05 58.6 86.84 86.84 0 0 0 28.06 16.22 100.03 100.03 0 0 0 34.14 5.73c8.32.02 16.62-.77 24.78-2.34a95.05 95.05 0 0 0 22.31-7.19 72.66 72.66 0 0 0 18.56-12.5 68.23 68.23 0 0 0 13.93-18.24l36.1 18.43ZM1169.42 88.25h-164.01l14.54 16.5v38.45h129.1v39.99h-129.1v59.38h156.53v40.31h-198.3v-235h191.24v40.37Z"></path></svg> 